<?xml version="1.0" encoding="UTF-8"?>
<svg id="_Слой_1" data-name="Слой 1" xmlns="http://www.w3.org/2000/svg" viewBox="0 0 800 177">
  <defs>
    <style>
      .cls-1 {
        fill: #141414;
      }

      .cls-2 {
        fill: #e4650a;
      }
    </style>
  </defs>
  <g>
    <path class="cls-1" d="m212.83,165.04v-27.72h17.71v27.72h-3.95v-24.41h-9.81v24.41h-3.95Z"/>
    <path class="cls-1" d="m237.79,174.7v-37.38h3.95v3.12h.05c.59-1.22,1.42-2.16,2.48-2.83s2.12-1,3.17-1c6.08,0,9.12,4.71,9.12,14.12,0,2.23-.14,4.21-.42,5.93-.28,1.72-.74,3.29-1.39,4.71-.64,1.42-1.56,2.51-2.74,3.27-1.19.76-2.62,1.14-4.29,1.14-1.34,0-2.46-.3-3.38-.9-.92-.6-1.79-1.5-2.6-2.7v12.52h-3.95Zm3.95-23.57c0,.9,0,1.67.03,2.32.02.65.07,1.39.15,2.23.08.84.2,1.55.34,2.14s.35,1.2.61,1.82c.26.62.57,1.13.94,1.51.36.38.82.69,1.37.94.55.24,1.17.37,1.86.37,1.01,0,1.87-.25,2.57-.76s1.26-1.28,1.67-2.32c.41-1.04.71-2.26.89-3.65.18-1.39.27-3.06.27-5,0-7.2-1.82-10.79-5.45-10.79-.78,0-1.46.15-2.05.47s-1.07.77-1.44,1.38-.68,1.25-.92,1.93c-.24.68-.42,1.47-.53,2.4-.11.92-.19,1.75-.23,2.5-.06.72-.08,1.57-.08,2.51Z"/>
    <path class="cls-1" d="m261.7,151.08c0-9.65,3.32-14.47,9.95-14.47s9.92,4.84,9.92,14.52c0,2.77-.22,5.12-.67,7.04-.45,1.93-1.12,3.44-2.02,4.54-.9,1.1-1.93,1.88-3.1,2.36-1.17.47-2.54.71-4.14.71-1.25,0-2.37-.14-3.35-.43s-1.89-.78-2.73-1.47-1.53-1.59-2.09-2.7-.99-2.51-1.31-4.21c-.3-1.69-.46-3.66-.46-5.89Zm4.13.41c0,1.72.09,3.22.28,4.5.19,1.27.49,2.41.92,3.42.43,1,1.03,1.76,1.8,2.28s1.71.77,2.82.77,2.08-.26,2.86-.77c.78-.52,1.37-1.28,1.79-2.29s.72-2.15.89-3.41.25-2.76.25-4.5c0-4.19-.44-7.16-1.33-8.92-.89-1.76-2.37-2.64-4.46-2.64s-3.6.88-4.49,2.64c-.89,1.75-1.33,4.73-1.33,8.92Z"/>
    <path class="cls-1" d="m287.76,165.04v-27.72h3.95v21.08c0,.9-.14,2-.4,3.32h.05c.34-1.69.61-2.79.81-3.32l9.2-21.08h4.79v27.72h-3.95v-21.01c0-.73.14-1.88.41-3.45h-.05c-.29,1.76-.57,2.91-.84,3.45l-9.18,21.01h-4.79Z"/>
    <path class="cls-1" d="m311.3,156.33h3.73c.2,2.3.7,3.89,1.49,4.79.79.9,2,1.34,3.64,1.34,3.34,0,5.01-1.71,5.01-5.14,0-1.52-.41-2.77-1.23-3.74s-1.96-1.46-3.4-1.46h-2.19v-3.32h2.14c1.15,0,2.12-.42,2.9-1.24.78-.83,1.17-1.93,1.17-3.32,0-1.22-.36-2.24-1.09-3.06-.72-.83-1.83-1.24-3.31-1.24s-2.64.44-3.42,1.33-1.22,2.05-1.3,3.49h-3.52c.1-2.26.92-4.19,2.45-5.77s3.5-2.37,5.9-2.37,4.26.66,5.82,1.99c1.55,1.33,2.33,2.98,2.33,4.95,0,1.79-.44,3.27-1.32,4.43-.88,1.17-2.07,1.95-3.56,2.36v.13c.68.14,1.34.37,1.97.7s1.22.77,1.78,1.33,1.01,1.27,1.34,2.14.5,1.85.5,2.93c0,2.47-.78,4.45-2.35,5.95-1.57,1.51-3.69,2.26-6.35,2.26-2.89,0-5.08-.76-6.56-2.29-1.49-1.54-2.35-3.93-2.57-7.17Z"/>
    <path class="cls-1" d="m335.33,165.04v-27.72h8.98c2.13,0,3.9.61,5.33,1.81,1.43,1.21,2.14,2.8,2.14,4.78,0,1.74-.39,3.19-1.18,4.35-.78,1.16-1.81,1.91-3.08,2.27v.1c1.55.37,2.76,1.14,3.63,2.31.86,1.17,1.29,2.7,1.29,4.59,0,2.3-.67,4.13-2,5.49s-2.94,2.04-4.83,2.04h-10.28v-.02Zm3.95-16.24h4.17c1.52,0,2.63-.33,3.33-.99.69-.66,1.04-1.73,1.04-3.22,0-1.35-.34-2.35-1.03-2.99s-1.75-.96-3.19-.96h-4.32v8.16Zm0,12.92h4.61c1.74,0,2.94-.38,3.6-1.14s.99-1.99.99-3.7c0-3.18-1.55-4.76-4.64-4.76h-4.56v9.6h0Z"/>
    <path class="cls-1" d="m357.63,151.08c0-9.65,3.32-14.47,9.95-14.47s9.92,4.84,9.92,14.52c0,2.77-.22,5.12-.67,7.04-.45,1.93-1.12,3.44-2.02,4.54-.9,1.1-1.93,1.88-3.1,2.36-1.17.47-2.54.71-4.14.71-1.25,0-2.37-.14-3.35-.43s-1.89-.78-2.73-1.47-1.53-1.59-2.09-2.7-.99-2.51-1.31-4.21c-.31-1.69-.46-3.66-.46-5.89Zm4.13.41c0,1.72.09,3.22.28,4.5.19,1.27.49,2.41.92,3.42.43,1,1.03,1.76,1.8,2.28s1.71.77,2.82.77,2.08-.26,2.86-.77c.78-.52,1.37-1.28,1.79-2.29s.72-2.15.89-3.41c.17-1.26.25-2.76.25-4.5,0-4.19-.44-7.16-1.33-8.92-.89-1.76-2.37-2.64-4.46-2.64s-3.6.88-4.49,2.64c-.89,1.75-1.33,4.73-1.33,8.92Z"/>
    <path class="cls-1" d="m381.08,161.72h2.35c1.25-2.67,2.1-5.03,2.55-7.07.45-2.04.68-4.77.68-8.19v-9.15h15.26v24.4h2.74v10.85h-3.73v-7.53h-16.32v7.53h-3.52v-10.84h0Zm6.37,0h10.51v-21.08h-7.45v7.96c0,2.7-.22,4.96-.67,6.78-.44,1.81-1.24,3.93-2.39,6.34Z"/>
    <path class="cls-1" d="m408.16,151.56c0-9.97,3.2-14.95,9.61-14.95,2.67,0,4.73.89,6.2,2.66s2.2,4.01,2.2,6.72h-3.72c0-.81-.08-1.56-.23-2.23-.15-.67-.4-1.31-.73-1.91-.34-.6-.83-1.07-1.47-1.41s-1.41-.51-2.3-.51c-.76,0-1.44.15-2.04.44-.6.3-1.09.73-1.47,1.31-.38.57-.7,1.21-.97,1.9-.27.69-.47,1.5-.61,2.43-.13.93-.23,1.83-.28,2.69s-.08,1.82-.08,2.86c0,.93.02,1.73.05,2.4s.1,1.47.2,2.41.27,1.73.51,2.37c.24.64.54,1.27.91,1.88s.86,1.07,1.48,1.38c.61.31,1.33.47,2.14.47.59,0,1.12-.08,1.59-.23s.87-.34,1.19-.57c.32-.23.6-.54.85-.93.24-.39.44-.76.58-1.13.14-.36.26-.81.35-1.36.09-.54.16-1.01.2-1.41.04-.4.08-.88.11-1.46h3.72c0,1.37-.15,2.65-.46,3.85-.3,1.2-.77,2.3-1.39,3.3-.62,1-1.49,1.79-2.61,2.37-1.11.58-2.41.87-3.9.87-1.18,0-2.25-.14-3.2-.42s-1.76-.66-2.42-1.13c-.67-.47-1.25-1.07-1.74-1.8s-.88-1.48-1.17-2.26-.52-1.67-.7-2.67c-.18-1-.3-1.97-.35-2.89-.02-.91-.05-1.92-.05-3.04Z"/>
    <path class="cls-1" d="m428.8,140.64v-3.32h18.42v3.32h-7.22v24.41h-3.95v-24.41h-7.25Z"/>
    <path class="cls-1" d="m451.57,165.04v-27.72h8.98c2.13,0,3.9.61,5.33,1.81,1.43,1.21,2.14,2.8,2.14,4.78,0,1.74-.39,3.19-1.18,4.35-.78,1.16-1.81,1.91-3.08,2.27v.1c1.55.37,2.76,1.14,3.63,2.31.86,1.17,1.29,2.7,1.29,4.59,0,2.3-.67,4.13-2,5.49s-2.94,2.04-4.83,2.04h-10.28v-.02Zm3.95-16.24h4.17c1.52,0,2.63-.33,3.33-.99.69-.66,1.04-1.73,1.04-3.22,0-1.35-.34-2.35-1.03-2.99s-1.75-.96-3.19-.96h-4.32v8.16Zm0,12.92h4.61c1.74,0,2.94-.38,3.6-1.14s.99-1.99.99-3.7c0-3.18-1.55-4.76-4.64-4.76h-4.56v9.6h0Z"/>
    <path class="cls-1" d="m473.86,151.13c0-9.68,2.97-14.52,8.91-14.52,1.26,0,2.38.21,3.35.62.97.41,1.76,1.01,2.38,1.8.61.78,1.13,1.64,1.53,2.56s.71,2.01.9,3.28.33,2.45.39,3.53c.07,1.09.1,2.33.1,3.71h-13.43c0,1.2.02,2.2.05,2.99.03.8.1,1.62.21,2.49.11.86.28,1.56.51,2.09s.52,1.03.87,1.48c.35.46.81.78,1.37.99.56.2,1.21.3,1.97.3,3,0,4.5-2.22,4.5-6.66h3.95c0,2.91-.7,5.3-2.11,7.17-1.41,1.88-3.49,2.81-6.24,2.81-1.51,0-2.81-.24-3.91-.73-1.1-.49-2.05-1.29-2.87-2.4-.81-1.11-1.42-2.62-1.83-4.54-.4-1.9-.6-4.23-.6-6.97Zm4.13-2.33h9.33c0-.95-.03-1.8-.09-2.56s-.18-1.55-.37-2.37c-.19-.82-.44-1.5-.76-2.05s-.76-1-1.32-1.36-1.21-.53-1.97-.53c-.69,0-1.31.13-1.86.39s-.99.63-1.33,1.12c-.34.48-.62,1-.85,1.55s-.4,1.18-.51,1.9c-.11.72-.19,1.37-.23,1.97-.02.58-.04,1.23-.04,1.94Z"/>
    <path class="cls-1" d="m497.64,165.04v-27.72h3.95v11.48h9.81v-11.48h3.95v27.72h-3.95v-12.92h-9.81v12.92h-3.95Z"/>
    <path class="cls-1" d="m522.59,165.04v-27.72h3.95v11.48h9.81v-11.48h3.95v27.72h-3.95v-12.92h-9.81v12.92h-3.95Z"/>
    <path class="cls-1" d="m546.02,158.15c0-1.23.13-2.28.38-3.16.26-.87.68-1.63,1.28-2.29.6-.66,1.3-1.22,2.11-1.67.8-.46,1.85-.94,3.14-1.45,2.09-.78,3.73-1.47,4.93-2.08.44-.2.72-.57.85-1.12.13-.54.19-1.26.19-2.15,0-1.59-.31-2.7-.92-3.35-.61-.64-1.71-.96-3.27-.96-1.45,0-2.48.4-3.11,1.19-.62.8-.94,2.02-.94,3.68h-3.52c0-2.8.67-4.87,2-6.2,1.33-1.32,3.32-1.99,5.97-1.99s4.55.66,5.83,1.99,1.92,3.01,1.92,5.06v16.35c0,.67.13,1.22.38,1.62.25.41.63.61,1.14.61.32,0,.62-.03.89-.1v2.92c-.34.2-.88.3-1.62.3-.68,0-1.21-.04-1.6-.11-.39-.08-.78-.24-1.17-.51-.39-.26-.7-.67-.93-1.22s-.42-1.28-.57-2.19h-.1c-.47,1.25-1.29,2.31-2.45,3.17-1.16.86-2.38,1.29-3.67,1.29-4.77,0-7.14-2.54-7.14-7.63Zm4.12-.18c0,1.3.3,2.33.9,3.1.6.77,1.52,1.15,2.77,1.15,3.39,0,5.08-1.87,5.08-5.6v-6.69c-.57.32-1.26.67-2.06,1.04s-1.48.68-2.05.92c-.56.24-1.16.56-1.78.94-.62.38-1.13.78-1.52,1.2s-.71.97-.96,1.64c-.25.68-.38,1.44-.38,2.3Z"/>
    <path class="cls-1" d="m568.13,165.04l5.91-12.09c-1.55-.57-2.77-1.55-3.67-2.94-.9-1.39-1.35-2.98-1.35-4.79,0-2.36.72-4.27,2.17-5.73,1.45-1.45,3.29-2.18,5.54-2.18h9.54v27.72h-3.95v-11.68h-4.25l-5.64,11.68h-4.3Zm5.02-19.66c0,1.55.37,2.72,1.11,3.5s1.95,1.17,3.61,1.17h4.45v-9.4h-4.3c-1.77,0-3.02.38-3.77,1.15-.72.76-1.1,1.96-1.1,3.58Z"/>
    <path class="cls-1" d="m605.95,165.04v-27.72h3.95v12.92l9.6-12.92h4.66l-8.57,10.79,8.82,16.93h-4.61l-6.89-13.81-3.02,3.95v9.86h-3.94Z"/>
    <path class="cls-1" d="m627.73,151.08c0-9.65,3.32-14.47,9.95-14.47s9.92,4.84,9.92,14.52c0,2.77-.22,5.12-.67,7.04-.45,1.93-1.12,3.44-2.02,4.54-.9,1.1-1.93,1.88-3.1,2.36-1.17.47-2.54.71-4.14.71-1.25,0-2.37-.14-3.35-.43s-1.89-.78-2.73-1.47c-.84-.69-1.53-1.59-2.09-2.7s-.99-2.51-1.31-4.21c-.3-1.69-.46-3.66-.46-5.89Zm4.13.41c0,1.72.09,3.22.28,4.5.19,1.27.49,2.41.92,3.42.43,1,1.03,1.76,1.8,2.28.77.52,1.71.77,2.82.77s2.08-.26,2.86-.77c.78-.52,1.37-1.28,1.79-2.29s.72-2.15.89-3.41.25-2.76.25-4.5c0-4.19-.44-7.16-1.33-8.92s-2.37-2.64-4.46-2.64-3.6.88-4.49,2.64c-.89,1.75-1.33,4.73-1.33,8.92Z"/>
    <path class="cls-1" d="m653.78,165.04v-27.72h6.14l5.04,18.27c.14.47.47,2.34.99,5.6h.05c.07-.39.16-1,.28-1.84.12-.84.23-1.56.33-2.18.1-.61.21-1.14.33-1.58l5.03-18.27h6.18v27.72h-3.85v-24.41h-.05l-7.01,24.41h-2.67l-6.95-24.4h0v24.4h-3.84Z"/>
    <path class="cls-1" d="m685.34,165.04v-27.72h17.71v27.72h-3.95v-24.41h-9.81v24.41h-3.95Z"/>
    <path class="cls-1" d="m708.76,158.15c0-1.23.13-2.28.38-3.16.26-.87.68-1.63,1.28-2.29.6-.66,1.3-1.22,2.11-1.67.8-.46,1.85-.94,3.14-1.45,2.09-.78,3.73-1.47,4.93-2.08.44-.2.72-.57.85-1.12.13-.54.19-1.26.19-2.15,0-1.59-.31-2.7-.92-3.35-.61-.64-1.71-.96-3.27-.96-1.45,0-2.48.4-3.11,1.19-.62.8-.94,2.02-.94,3.68h-3.52c0-2.8.67-4.87,2-6.2,1.33-1.32,3.32-1.99,5.97-1.99s4.55.66,5.83,1.99,1.92,3.01,1.92,5.06v16.35c0,.67.13,1.22.38,1.62.25.41.63.61,1.14.61.32,0,.62-.03.89-.1v2.92c-.34.2-.88.3-1.62.3-.68,0-1.21-.04-1.6-.11-.39-.08-.78-.24-1.17-.51-.39-.26-.7-.67-.93-1.22s-.42-1.28-.57-2.19h-.1c-.47,1.25-1.29,2.31-2.45,3.17-1.16.86-2.38,1.29-3.67,1.29-4.77,0-7.14-2.54-7.14-7.63Zm4.12-.18c0,1.3.3,2.33.9,3.1.6.77,1.52,1.15,2.77,1.15,3.39,0,5.08-1.87,5.08-5.6v-6.69c-.57.32-1.26.67-2.06,1.04s-1.48.68-2.05.92-1.16.56-1.78.94c-.62.38-1.13.78-1.52,1.2s-.71.97-.96,1.64c-.25.68-.38,1.44-.38,2.3Z"/>
    <path class="cls-1" d="m732.79,165.04v-27.72h3.95v11.48h9.81v-11.48h3.95v27.72h-3.95v-12.92h-9.81v12.92h-3.95Z"/>
    <path class="cls-1" d="m757.76,165.04v-27.72h3.95v21.08c0,.9-.14,2-.4,3.32h.05c.34-1.69.61-2.79.81-3.32l9.2-21.08h4.79v27.72h-3.95v-21.01c0-.73.14-1.88.41-3.45h-.05c-.29,1.76-.57,2.91-.84,3.45l-9.18,21.01h-4.79Z"/>
    <path class="cls-1" d="m781.46,165.04l5.91-12.09c-1.55-.57-2.77-1.55-3.67-2.94-.9-1.39-1.35-2.98-1.35-4.79,0-2.36.72-4.27,2.17-5.73,1.45-1.45,3.29-2.18,5.54-2.18h9.54v27.72h-3.95v-11.68h-4.25l-5.64,11.68h-4.3Zm5.02-19.66c0,1.55.37,2.72,1.11,3.5s1.95,1.17,3.61,1.17h4.45v-9.4h-4.3c-1.77,0-3.02.38-3.77,1.15-.73.76-1.1,1.96-1.1,3.58Z"/>
  </g>
  <g>
    <path class="cls-1" d="m257.8,23.9v17.35h-24.44v69.15h-21.09V23.9h45.53Z"/>
    <path class="cls-1" d="m265.86,110.41V23.9h30.25c4.61,0,8.78.73,12.51,2.18s6.79,4.14,9.2,8.06c2.4,3.92,3.6,9.3,3.6,16.15s-1.19,11.94-3.57,15.88c-2.38,3.94-5.45,6.68-9.21,8.21-3.76,1.53-7.93,2.3-12.52,2.3h-9.41v33.74h-20.85Zm20.85-49.27h3.74c6.59,0,9.88-3.7,9.88-11.09,0-4-.87-6.77-2.6-8.31-1.74-1.54-4.28-2.31-7.63-2.31h-3.38v21.71h0Z"/>
    <path class="cls-1" d="m385.3,23.9l-18.56,66.62c-1.59,5.71-3.31,10.04-5.18,12.99-1.86,2.95-4.25,5-7.16,6.15s-6.87,1.72-11.87,1.72-8.69-.77-10.47-2.3v-14.71c1.02.41,2.74.62,5.18.62,2.63,0,4.27-.97,4.94-2.91l-19.54-68.18h21.8l7.85,37.71c.24,1.22.44,3.72.6,7.52.17,3.79.33,7.23.49,10.31h.24c.67-8.75,1.34-14.69,2.03-17.82l8.09-37.71h21.56Z"/>
    <path class="cls-1" d="m411.17,73.17h-2.99v-15.53h4.94c1.61,0,3.05-.87,4.34-2.6,1.28-1.74,1.93-4.05,1.93-6.93,0-7.06-2.33-10.59-7-10.59-1.77,0-3.15.44-4.16,1.32s-1.73,2.25-2.16,4.09c-.43,1.84-.65,4.29-.65,7.35h-19.15c0-5.82,1.12-10.85,3.37-15.09,2.24-4.24,5.35-7.46,9.31-9.66,3.96-2.21,8.44-3.31,13.44-3.31,5.31,0,9.93,1.02,13.84,3.06s6.88,4.78,8.91,8.24c2.03,3.45,3.04,7.24,3.04,11.35,0,5.32-.94,9.49-2.83,12.53-1.89,3.04-5.05,5.53-9.49,7.47h.24c3.51,1.32,6.29,2.7,8.34,4.15,2.04,1.45,3.68,3.61,4.9,6.49,1.23,2.87,1.84,6.8,1.84,11.78,0,8.29-2.46,14.56-7.38,18.81-4.92,4.24-11.66,6.37-20.21,6.37-4.82,0-9.28-.83-13.35-2.5-4.08-1.67-7.43-4.59-10.04-8.78-2.62-4.19-3.93-9.75-3.93-16.69h19.13c0,4.6.62,7.86,1.87,9.79,1.24,1.93,3.07,2.89,5.48,2.89,2.76,0,4.72-.92,5.86-2.77,1.15-1.84,1.72-5.14,1.72-9.89,0-4.06-.7-6.97-2.11-8.72-1.42-1.76-3.76-2.63-7.05-2.63Z"/>
    <path class="cls-2" d="m472.63,41.26v69.15h-20.85V23.9h55.33v86.51h-20.85V41.26h-13.63Z"/>
    <path class="cls-2" d="m520.34,110.41V23.9h30.25c4.61,0,8.78.73,12.51,2.18s6.79,4.14,9.2,8.06c2.4,3.92,3.6,9.3,3.6,16.15s-1.19,11.94-3.57,15.88c-2.38,3.94-5.45,6.68-9.21,8.21s-7.93,2.3-12.52,2.3h-9.41v33.74h-20.85Zm20.86-49.27h3.74c6.59,0,9.88-3.7,9.88-11.09,0-4-.87-6.77-2.6-8.31-1.74-1.54-4.28-2.31-7.63-2.31h-3.38v21.71h-.01Z"/>
    <path class="cls-2" d="m583.96,46.31c0-4.69,1.01-8.86,3.02-12.52s5.14-6.54,9.37-8.65c4.24-2.11,9.5-3.16,15.8-3.16s11.54,1.07,15.73,3.2c4.19,2.14,7.27,5.05,9.26,8.74,1.98,3.69,2.97,7.85,2.97,12.5v38.8c0,8.82-2.29,15.55-6.86,20.18s-11.64,6.94-21.22,6.94c-18.72,0-28.08-9.04-28.08-27.12v-38.91h.01Zm28.08-8.53c-2,0-3.7.62-5.11,1.87-1.41,1.24-2.11,3.03-2.11,5.37v43.83c0,2.41.72,4.3,2.16,5.66,1.44,1.36,3.13,2.04,5.06,2.04s3.58-.69,5.03-2.06,2.19-3.25,2.19-5.64v-43.83c0-2.31-.72-4.1-2.16-5.35s-3.12-1.89-5.06-1.89Z"/>
    <path class="cls-2" d="m702.67,23.9v8.33h6.15c5.43,0,10.21,1.21,14.34,3.63s7.34,6.19,9.65,11.32c2.3,5.13,3.46,11.62,3.46,19.48s-1.15,14.53-3.46,19.67c-2.3,5.14-5.52,8.89-9.65,11.25s-8.91,3.54-14.34,3.54h-6.15v9.29h-20.24v-9.29h-6.15c-5.41,0-10.18-1.19-14.31-3.56-4.13-2.37-7.35-6.13-9.68-11.29-2.32-5.15-3.49-11.69-3.49-19.61s1.16-14.28,3.49-19.43c2.32-5.16,5.55-8.94,9.68-11.36,4.13-2.42,8.9-3.63,14.31-3.63h6.15v-8.34h20.24Zm-20.24,61.68v-37.82h-4.35c-3.59,0-6.17,1.57-7.75,4.72s-2.37,7.88-2.37,14.19.82,11.09,2.46,14.22,4.27,4.69,7.9,4.69c0,0,4.11,0,4.11,0Zm20.24,0h4.21c3.61,0,6.22-1.55,7.82-4.63s2.41-7.85,2.41-14.28-.78-11.14-2.32-14.25c-1.55-3.11-4.11-4.66-7.68-4.66h-4.44v37.82Z"/>
    <path class="cls-2" d="m780.11,110.41v-20.12c0-3.51.61-9.53,1.84-18.06,1.22-8.53,1.9-13.35,2.01-14.47h-.12l-17.94,52.65h-20.23V23.9h19.88v21.44c0,2.71-.15,5.44-.44,8.19-.29,2.76-.78,6.86-1.46,12.32s-1.09,9.59-1.25,12.37h.12l17.59-54.33h19.88v86.51h-19.88Z"/>
  </g>
  <g>
    <path class="cls-2" d="m94.59,176.04c8.56-.67,16.76-2.55,24.46-5.5v-82.55h-24.46v88.05Z"/>
    <path class="cls-2" d="m87.69.96C39.26.96,0,40.22,0,88.64,0,116.48,13,141.27,33.23,157.33V33.75h108.92l-23.11,19.35h-62.7v117.44c4.85,1.86,9.91,3.29,15.13,4.27v-106.17h70.68v88.71c20.23-16.06,33.22-40.85,33.22-68.69C175.37,40.22,136.12.96,87.69.96Z"/>
  </g>
</svg>