<?xml version="1.0" encoding="utf-8"?>
<!-- Generator: Adobe Illustrator 22.1.0, SVG Export Plug-In . SVG Version: 6.00 Build 0)  -->
<svg version="1.1" id="Слой_1" xmlns="http://www.w3.org/2000/svg" xmlns:xlink="http://www.w3.org/1999/xlink" x="0px" y="0px"
	 viewBox="0 0 830 220" style="enable-background:new 0 0 830 220;" xml:space="preserve">
<style type="text/css">
	.st0{fill:#333333;}
	.st1{fill:#576992;}
	.st2{fill:#414c64;}
</style>
<g>
	<g>
		<g>
			<path class="st0" d="M226.4,186.5v-27.7h17.7v27.7h-4v-24.4h-9.8v24.4H226.4z"/>
			<path class="st0" d="M251.4,196.2v-37.4h4v3.1h0.1c0.6-1.2,1.4-2.2,2.5-2.8c1.1-0.7,2.1-1,3.2-1c6.1,0,9.1,4.7,9.1,14.1
				c0,2.2-0.1,4.2-0.4,5.9c-0.3,1.7-0.7,3.3-1.4,4.7c-0.6,1.4-1.6,2.5-2.7,3.3c-1.2,0.8-2.6,1.1-4.3,1.1c-1.3,0-2.5-0.3-3.4-0.9
				c-0.9-0.6-1.8-1.5-2.6-2.7v12.5H251.4z M255.4,172.6c0,0.9,0,1.7,0,2.3c0,0.7,0.1,1.4,0.2,2.2c0.1,0.8,0.2,1.6,0.3,2.1
				c0.1,0.6,0.3,1.2,0.6,1.8c0.3,0.6,0.6,1.1,0.9,1.5c0.4,0.4,0.8,0.7,1.4,0.9c0.5,0.2,1.2,0.4,1.9,0.4c1,0,1.9-0.3,2.6-0.8
				c0.7-0.5,1.3-1.3,1.7-2.3c0.4-1,0.7-2.3,0.9-3.6c0.2-1.4,0.3-3.1,0.3-5c0-7.2-1.8-10.8-5.4-10.8c-0.8,0-1.5,0.2-2.1,0.5
				s-1.1,0.8-1.4,1.4c-0.4,0.6-0.7,1.2-0.9,1.9c-0.2,0.7-0.4,1.5-0.5,2.4c-0.1,0.9-0.2,1.8-0.2,2.5
				C255.4,170.8,255.4,171.7,255.4,172.6z"/>
			<path class="st0" d="M275.3,172.6c0-9.6,3.3-14.5,9.9-14.5c6.6,0,9.9,4.8,9.9,14.5c0,2.8-0.2,5.1-0.7,7c-0.4,1.9-1.1,3.4-2,4.5
				c-0.9,1.1-1.9,1.9-3.1,2.4c-1.2,0.5-2.5,0.7-4.1,0.7c-1.3,0-2.4-0.1-3.3-0.4c-1-0.3-1.9-0.8-2.7-1.5c-0.8-0.7-1.5-1.6-2.1-2.7
				c-0.6-1.1-1-2.5-1.3-4.2C275.5,176.8,275.3,174.8,275.3,172.6z M279.5,173c0,1.7,0.1,3.2,0.3,4.5c0.2,1.3,0.5,2.4,0.9,3.4
				c0.4,1,1,1.8,1.8,2.3c0.8,0.5,1.7,0.8,2.8,0.8c1.1,0,2.1-0.3,2.9-0.8c0.8-0.5,1.4-1.3,1.8-2.3c0.4-1,0.7-2.1,0.9-3.4
				s0.3-2.8,0.3-4.5c0-4.2-0.4-7.2-1.3-8.9c-0.9-1.8-2.4-2.6-4.5-2.6c-2.1,0-3.6,0.9-4.5,2.6C279.9,165.8,279.5,168.8,279.5,173z"/>
			<path class="st0" d="M301.4,186.5v-27.7h4v21.1c0,0.9-0.1,2-0.4,3.3h0c0.3-1.7,0.6-2.8,0.8-3.3l9.2-21.1h4.8v27.7h-4v-21
				c0-0.7,0.1-1.9,0.4-3.4h-0.1c-0.3,1.8-0.6,2.9-0.8,3.4l-9.2,21H301.4z"/>
			<path class="st0" d="M324.9,177.8h3.7c0.2,2.3,0.7,3.9,1.5,4.8c0.8,0.9,2,1.3,3.6,1.3c3.3,0,5-1.7,5-5.1c0-1.5-0.4-2.8-1.2-3.7
				c-0.8-1-2-1.5-3.4-1.5H332v-3.3h2.1c1.2,0,2.1-0.4,2.9-1.2c0.8-0.8,1.2-1.9,1.2-3.3c0-1.2-0.4-2.2-1.1-3.1
				c-0.7-0.8-1.8-1.2-3.3-1.2c-1.5,0-2.6,0.4-3.4,1.3c-0.8,0.9-1.2,2-1.3,3.5h-3.5c0.1-2.3,0.9-4.2,2.4-5.8c1.5-1.6,3.5-2.4,5.9-2.4
				c2.3,0,4.3,0.7,5.8,2c1.6,1.3,2.3,3,2.3,5c0,1.8-0.4,3.3-1.3,4.4c-0.9,1.2-2.1,2-3.6,2.4v0.1c0.7,0.1,1.3,0.4,2,0.7
				c0.6,0.3,1.2,0.8,1.8,1.3c0.6,0.6,1,1.3,1.3,2.1c0.3,0.9,0.5,1.8,0.5,2.9c0,2.5-0.8,4.5-2.4,6c-1.6,1.5-3.7,2.3-6.4,2.3
				c-2.9,0-5.1-0.8-6.6-2.3C326,183.5,325.1,181.1,324.9,177.8z"/>
			<path class="st0" d="M348.9,186.5v-27.7h9c2.1,0,3.9,0.6,5.3,1.8c1.4,1.2,2.1,2.8,2.1,4.8c0,1.7-0.4,3.2-1.2,4.3
				c-0.8,1.2-1.8,1.9-3.1,2.3v0.1c1.6,0.4,2.8,1.1,3.6,2.3c0.9,1.2,1.3,2.7,1.3,4.6c0,2.3-0.7,4.1-2,5.5c-1.3,1.4-2.9,2-4.8,2H348.9
				z M352.9,170.3h4.2c1.5,0,2.6-0.3,3.3-1c0.7-0.7,1-1.7,1-3.2c0-1.4-0.3-2.3-1-3c-0.7-0.6-1.7-1-3.2-1h-4.3V170.3z M352.9,183.2
				h4.6c1.7,0,2.9-0.4,3.6-1.1s1-2,1-3.7c0-3.2-1.5-4.8-4.6-4.8h-4.6V183.2z"/>
			<path class="st0" d="M371.2,172.6c0-9.6,3.3-14.5,9.9-14.5c6.6,0,9.9,4.8,9.9,14.5c0,2.8-0.2,5.1-0.7,7c-0.4,1.9-1.1,3.4-2,4.5
				c-0.9,1.1-1.9,1.9-3.1,2.4c-1.2,0.5-2.5,0.7-4.1,0.7c-1.3,0-2.4-0.1-3.3-0.4c-1-0.3-1.9-0.8-2.7-1.5c-0.8-0.7-1.5-1.6-2.1-2.7
				c-0.6-1.1-1-2.5-1.3-4.2C371.4,176.8,371.2,174.8,371.2,172.6z M375.4,173c0,1.7,0.1,3.2,0.3,4.5c0.2,1.3,0.5,2.4,0.9,3.4
				c0.4,1,1,1.8,1.8,2.3c0.8,0.5,1.7,0.8,2.8,0.8c1.1,0,2.1-0.3,2.9-0.8c0.8-0.5,1.4-1.3,1.8-2.3c0.4-1,0.7-2.1,0.9-3.4
				c0.2-1.3,0.3-2.8,0.3-4.5c0-4.2-0.4-7.2-1.3-8.9c-0.9-1.8-2.4-2.6-4.5-2.6c-2.1,0-3.6,0.9-4.5,2.6
				C375.8,165.8,375.4,168.8,375.4,173z"/>
			<path class="st0" d="M394.7,183.2h2.4c1.2-2.7,2.1-5,2.5-7.1c0.4-2,0.7-4.8,0.7-8.2v-9.1h15.3v24.4h2.7v10.8h-3.7v-7.5h-16.3v7.5
				h-3.5V183.2z M401.1,183.2h10.5v-21.1h-7.4v8c0,2.7-0.2,5-0.7,6.8C403,178.7,402.2,180.8,401.1,183.2z"/>
			<path class="st0" d="M421.8,173.1c0-10,3.2-15,9.6-15c2.7,0,4.7,0.9,6.2,2.7c1.5,1.8,2.2,4,2.2,6.7h-3.7c0-0.8-0.1-1.6-0.2-2.2
				c-0.2-0.7-0.4-1.3-0.7-1.9c-0.3-0.6-0.8-1.1-1.5-1.4c-0.6-0.3-1.4-0.5-2.3-0.5c-0.8,0-1.4,0.1-2,0.4c-0.6,0.3-1.1,0.7-1.5,1.3
				c-0.4,0.6-0.7,1.2-1,1.9c-0.3,0.7-0.5,1.5-0.6,2.4c-0.1,0.9-0.2,1.8-0.3,2.7c-0.1,0.9-0.1,1.8-0.1,2.9c0,0.9,0,1.7,0.1,2.4
				c0,0.7,0.1,1.5,0.2,2.4s0.3,1.7,0.5,2.4c0.2,0.6,0.5,1.3,0.9,1.9c0.4,0.6,0.9,1.1,1.5,1.4c0.6,0.3,1.3,0.5,2.1,0.5
				c0.6,0,1.1-0.1,1.6-0.2c0.5-0.2,0.9-0.3,1.2-0.6c0.3-0.2,0.6-0.5,0.8-0.9c0.2-0.4,0.4-0.8,0.6-1.1c0.1-0.4,0.3-0.8,0.4-1.4
				c0.1-0.5,0.2-1,0.2-1.4c0-0.4,0.1-0.9,0.1-1.5h3.7c0,1.4-0.2,2.7-0.5,3.9c-0.3,1.2-0.8,2.3-1.4,3.3c-0.6,1-1.5,1.8-2.6,2.4
				c-1.1,0.6-2.4,0.9-3.9,0.9c-1.2,0-2.2-0.1-3.2-0.4c-0.9-0.3-1.8-0.7-2.4-1.1c-0.7-0.5-1.2-1.1-1.7-1.8c-0.5-0.7-0.9-1.5-1.2-2.3
				c-0.3-0.8-0.5-1.7-0.7-2.7c-0.2-1-0.3-2-0.4-2.9C421.8,175.2,421.8,174.2,421.8,173.1z"/>
			<path class="st0" d="M442.4,162.1v-3.3h18.4v3.3h-7.2v24.4h-4v-24.4H442.4z"/>
			<path class="st0" d="M465.2,186.5v-27.7h9c2.1,0,3.9,0.6,5.3,1.8c1.4,1.2,2.1,2.8,2.1,4.8c0,1.7-0.4,3.2-1.2,4.3
				c-0.8,1.2-1.8,1.9-3.1,2.3v0.1c1.6,0.4,2.8,1.1,3.6,2.3c0.9,1.2,1.3,2.7,1.3,4.6c0,2.3-0.7,4.1-2,5.5c-1.3,1.4-2.9,2-4.8,2H465.2
				z M469.1,170.3h4.2c1.5,0,2.6-0.3,3.3-1c0.7-0.7,1-1.7,1-3.2c0-1.4-0.3-2.3-1-3c-0.7-0.6-1.7-1-3.2-1h-4.3V170.3z M469.1,183.2
				h4.6c1.7,0,2.9-0.4,3.6-1.1c0.7-0.8,1-2,1-3.7c0-3.2-1.5-4.8-4.6-4.8h-4.6V183.2z"/>
			<path class="st0" d="M487.5,172.6c0-9.7,3-14.5,8.9-14.5c1.3,0,2.4,0.2,3.4,0.6c1,0.4,1.8,1,2.4,1.8c0.6,0.8,1.1,1.6,1.5,2.6
				c0.4,0.9,0.7,2,0.9,3.3c0.2,1.3,0.3,2.4,0.4,3.5c0.1,1.1,0.1,2.3,0.1,3.7h-13.4c0,1.2,0,2.2,0.1,3c0,0.8,0.1,1.6,0.2,2.5
				c0.1,0.9,0.3,1.6,0.5,2.1c0.2,0.5,0.5,1,0.9,1.5c0.4,0.5,0.8,0.8,1.4,1c0.6,0.2,1.2,0.3,2,0.3c3,0,4.5-2.2,4.5-6.7h4
				c0,2.9-0.7,5.3-2.1,7.2c-1.4,1.9-3.5,2.8-6.2,2.8c-1.5,0-2.8-0.2-3.9-0.7c-1.1-0.5-2.1-1.3-2.9-2.4c-0.8-1.1-1.4-2.6-1.8-4.5
				C487.7,177.7,487.5,175.4,487.5,172.6z M491.6,170.3h9.3c0-0.9,0-1.8-0.1-2.6c-0.1-0.8-0.2-1.5-0.4-2.4c-0.2-0.8-0.4-1.5-0.8-2.1
				c-0.3-0.5-0.8-1-1.3-1.4c-0.6-0.4-1.2-0.5-2-0.5c-0.7,0-1.3,0.1-1.9,0.4c-0.5,0.3-1,0.6-1.3,1.1c-0.3,0.5-0.6,1-0.8,1.5
				c-0.2,0.5-0.4,1.2-0.5,1.9c-0.1,0.7-0.2,1.4-0.2,2C491.6,168.9,491.6,169.6,491.6,170.3z"/>
			<path class="st0" d="M511.3,186.5v-27.7h4v11.5h9.8v-11.5h4v27.7h-4v-12.9h-9.8v12.9H511.3z"/>
			<path class="st0" d="M536.2,186.5v-27.7h4v11.5h9.8v-11.5h4v27.7h-4v-12.9h-9.8v12.9H536.2z"/>
			<path class="st0" d="M559.6,179.7c0-1.2,0.1-2.3,0.4-3.2c0.3-0.9,0.7-1.6,1.3-2.3c0.6-0.7,1.3-1.2,2.1-1.7
				c0.8-0.5,1.9-0.9,3.1-1.4c2.1-0.8,3.7-1.5,4.9-2.1c0.4-0.2,0.7-0.6,0.8-1.1c0.1-0.5,0.2-1.3,0.2-2.2c0-1.6-0.3-2.7-0.9-3.3
				c-0.6-0.6-1.7-1-3.3-1c-1.4,0-2.5,0.4-3.1,1.2c-0.6,0.8-0.9,2-0.9,3.7h-3.5c0-2.8,0.7-4.9,2-6.2c1.3-1.3,3.3-2,6-2
				c2.6,0,4.5,0.7,5.8,2c1.3,1.3,1.9,3,1.9,5.1v16.3c0,0.7,0.1,1.2,0.4,1.6c0.3,0.4,0.6,0.6,1.1,0.6c0.3,0,0.6,0,0.9-0.1v2.9
				c-0.3,0.2-0.9,0.3-1.6,0.3c-0.7,0-1.2,0-1.6-0.1c-0.4-0.1-0.8-0.2-1.2-0.5c-0.4-0.3-0.7-0.7-0.9-1.2c-0.2-0.5-0.4-1.3-0.6-2.2
				h-0.1c-0.5,1.2-1.3,2.3-2.5,3.2c-1.2,0.9-2.4,1.3-3.7,1.3C562,187.3,559.6,184.7,559.6,179.7z M563.8,179.5
				c0,1.3,0.3,2.3,0.9,3.1c0.6,0.8,1.5,1.2,2.8,1.2c3.4,0,5.1-1.9,5.1-5.6v-6.7c-0.6,0.3-1.3,0.7-2.1,1c-0.8,0.4-1.5,0.7-2,0.9
				c-0.6,0.2-1.2,0.6-1.8,0.9c-0.6,0.4-1.1,0.8-1.5,1.2c-0.4,0.4-0.7,1-1,1.6C563.9,177.8,563.8,178.6,563.8,179.5z"/>
			<path class="st0" d="M581.8,186.5l5.9-12.1c-1.5-0.6-2.8-1.6-3.7-2.9c-0.9-1.4-1.3-3-1.3-4.8c0-2.4,0.7-4.3,2.2-5.7
				c1.4-1.5,3.3-2.2,5.5-2.2h9.5v27.7h-4v-11.7h-4.2l-5.6,11.7H581.8z M586.8,166.9c0,1.6,0.4,2.7,1.1,3.5c0.7,0.8,1.9,1.2,3.6,1.2
				h4.4v-9.4h-4.3c-1.8,0-3,0.4-3.8,1.2C587.1,164.1,586.8,165.3,586.8,166.9z"/>
			<path class="st0" d="M619.6,186.5v-27.7h4v12.9l9.6-12.9h4.7l-8.6,10.8l8.8,16.9h-4.6l-6.9-13.8l-3,4v9.9H619.6z"/>
			<path class="st0" d="M641.4,172.6c0-9.6,3.3-14.5,9.9-14.5c6.6,0,9.9,4.8,9.9,14.5c0,2.8-0.2,5.1-0.7,7c-0.4,1.9-1.1,3.4-2,4.5
				c-0.9,1.1-1.9,1.9-3.1,2.4c-1.2,0.5-2.5,0.7-4.1,0.7c-1.3,0-2.4-0.1-3.3-0.4c-1-0.3-1.9-0.8-2.7-1.5c-0.8-0.7-1.5-1.6-2.1-2.7
				c-0.6-1.1-1-2.5-1.3-4.2C641.5,176.8,641.4,174.8,641.4,172.6z M645.5,173c0,1.7,0.1,3.2,0.3,4.5c0.2,1.3,0.5,2.4,0.9,3.4
				c0.4,1,1,1.8,1.8,2.3c0.8,0.5,1.7,0.8,2.8,0.8c1.1,0,2.1-0.3,2.9-0.8c0.8-0.5,1.4-1.3,1.8-2.3c0.4-1,0.7-2.1,0.9-3.4
				s0.3-2.8,0.3-4.5c0-4.2-0.4-7.2-1.3-8.9c-0.9-1.8-2.4-2.6-4.5-2.6c-2.1,0-3.6,0.9-4.5,2.6C645.9,165.8,645.5,168.8,645.5,173z"/>
			<path class="st0" d="M667.4,186.5v-27.7h6.1l5,18.3c0.1,0.5,0.5,2.3,1,5.6h0.1c0.1-0.4,0.2-1,0.3-1.8c0.1-0.8,0.2-1.6,0.3-2.2
				c0.1-0.6,0.2-1.1,0.3-1.6l5-18.3h6.2v27.7h-3.9v-24.4h0l-7,24.4h-2.7l-6.9-24.4h0v24.4H667.4z"/>
			<path class="st0" d="M699,186.5v-27.7h17.7v27.7h-4v-24.4h-9.8v24.4H699z"/>
			<path class="st0" d="M722.4,179.7c0-1.2,0.1-2.3,0.4-3.2c0.3-0.9,0.7-1.6,1.3-2.3c0.6-0.7,1.3-1.2,2.1-1.7
				c0.8-0.5,1.9-0.9,3.1-1.4c2.1-0.8,3.7-1.5,4.9-2.1c0.4-0.2,0.7-0.6,0.8-1.1c0.1-0.5,0.2-1.3,0.2-2.2c0-1.6-0.3-2.7-0.9-3.3
				c-0.6-0.6-1.7-1-3.3-1c-1.4,0-2.5,0.4-3.1,1.2c-0.6,0.8-0.9,2-0.9,3.7h-3.5c0-2.8,0.7-4.9,2-6.2c1.3-1.3,3.3-2,6-2
				c2.6,0,4.5,0.7,5.8,2c1.3,1.3,1.9,3,1.9,5.1v16.3c0,0.7,0.1,1.2,0.4,1.6c0.3,0.4,0.6,0.6,1.1,0.6c0.3,0,0.6,0,0.9-0.1v2.9
				c-0.3,0.2-0.9,0.3-1.6,0.3c-0.7,0-1.2,0-1.6-0.1c-0.4-0.1-0.8-0.2-1.2-0.5c-0.4-0.3-0.7-0.7-0.9-1.2c-0.2-0.5-0.4-1.3-0.6-2.2
				h-0.1c-0.5,1.2-1.3,2.3-2.5,3.2c-1.2,0.9-2.4,1.3-3.7,1.3C724.7,187.3,722.4,184.7,722.4,179.7z M726.5,179.5
				c0,1.3,0.3,2.3,0.9,3.1c0.6,0.8,1.5,1.2,2.8,1.2c3.4,0,5.1-1.9,5.1-5.6v-6.7c-0.6,0.3-1.3,0.7-2.1,1c-0.8,0.4-1.5,0.7-2,0.9
				s-1.2,0.6-1.8,0.9c-0.6,0.4-1.1,0.8-1.5,1.2c-0.4,0.4-0.7,1-1,1.6C726.6,177.8,726.5,178.6,726.5,179.5z"/>
			<path class="st0" d="M746.4,186.5v-27.7h4v11.5h9.8v-11.5h4v27.7h-4v-12.9h-9.8v12.9H746.4z"/>
			<path class="st0" d="M771.4,186.5v-27.7h4v21.1c0,0.9-0.1,2-0.4,3.3h0c0.3-1.7,0.6-2.8,0.8-3.3l9.2-21.1h4.8v27.7h-4v-21
				c0-0.7,0.1-1.9,0.4-3.4h-0.1c-0.3,1.8-0.6,2.9-0.8,3.4l-9.2,21H771.4z"/>
			<path class="st0" d="M795.1,186.5l5.9-12.1c-1.5-0.6-2.8-1.6-3.7-2.9c-0.9-1.4-1.3-3-1.3-4.8c0-2.4,0.7-4.3,2.2-5.7
				c1.4-1.5,3.3-2.2,5.5-2.2h9.5v27.7h-4v-11.7H805l-5.6,11.7H795.1z M800.1,166.9c0,1.6,0.4,2.7,1.1,3.5c0.7,0.8,1.9,1.2,3.6,1.2
				h4.4v-9.4H805c-1.8,0-3,0.4-3.8,1.2C800.5,164.1,800.1,165.3,800.1,166.9z"/>
		</g>
	</g>
	<g>
		<path class="st0" d="M271.4,45.4v17.4H247v69.2h-21.1V45.4H271.4z"/>
		<path class="st0" d="M279.5,131.9V45.4h30.3c4.6,0,8.8,0.7,12.5,2.2c3.7,1.5,6.8,4.1,9.2,8.1c2.4,3.9,3.6,9.3,3.6,16.1
			c0,6.6-1.2,11.9-3.6,15.9c-2.4,3.9-5.5,6.7-9.2,8.2c-3.8,1.5-7.9,2.3-12.5,2.3h-9.4v33.7H279.5z M300.3,82.6h3.7
			c6.6,0,9.9-3.7,9.9-11.1c0-4-0.9-6.8-2.6-8.3c-1.7-1.5-4.3-2.3-7.6-2.3h-3.4V82.6z"/>
		<path class="st0" d="M398.9,45.4L380.4,112c-1.6,5.7-3.3,10-5.2,13c-1.9,3-4.3,5-7.2,6.1c-2.9,1.1-6.9,1.7-11.9,1.7
			c-5.2,0-8.7-0.8-10.5-2.3v-14.7c1,0.4,2.7,0.6,5.2,0.6c2.6,0,4.3-1,4.9-2.9l-19.5-68.2h21.8l7.9,37.7c0.2,1.2,0.4,3.7,0.6,7.5
			c0.2,3.8,0.3,7.2,0.5,10.3h0.2c0.7-8.7,1.3-14.7,2-17.8l8.1-37.7H398.9z"/>
		<path class="st0" d="M424.8,94.7h-3V79.1h4.9c1.6,0,3.1-0.9,4.3-2.6c1.3-1.7,1.9-4,1.9-6.9c0-7.1-2.3-10.6-7-10.6
			c-1.8,0-3.2,0.4-4.2,1.3c-1,0.9-1.7,2.2-2.2,4.1c-0.4,1.8-0.6,4.3-0.6,7.4h-19.1c0-5.8,1.1-10.9,3.4-15.1c2.2-4.2,5.3-7.5,9.3-9.7
			c4-2.2,8.4-3.3,13.4-3.3c5.3,0,9.9,1,13.8,3.1c3.9,2,6.9,4.8,8.9,8.2c2,3.5,3,7.2,3,11.4c0,5.3-0.9,9.5-2.8,12.5
			c-1.9,3-5,5.5-9.5,7.5h0.2c3.5,1.3,6.3,2.7,8.3,4.1c2,1.5,3.7,3.6,4.9,6.5c1.2,2.9,1.8,6.8,1.8,11.8c0,8.3-2.5,14.6-7.4,18.8
			c-4.9,4.2-11.7,6.4-20.2,6.4c-4.8,0-9.3-0.8-13.4-2.5c-4.1-1.7-7.4-4.6-10-8.8c-2.6-4.2-3.9-9.8-3.9-16.7H419
			c0,4.6,0.6,7.9,1.9,9.8c1.2,1.9,3.1,2.9,5.5,2.9c2.8,0,4.7-0.9,5.9-2.8c1.1-1.8,1.7-5.1,1.7-9.9c0-4.1-0.7-7-2.1-8.7
			C430.4,95.5,428.1,94.7,424.8,94.7z"/>
		<path class="st1" d="M486.3,62.8v69.2h-20.9V45.4h55.3v86.5h-20.9V62.8H486.3z"/>
		<path class="st1" d="M534,131.9V45.4h30.3c4.6,0,8.8,0.7,12.5,2.2c3.7,1.5,6.8,4.1,9.2,8.1c2.4,3.9,3.6,9.3,3.6,16.1
			c0,6.6-1.2,11.9-3.6,15.9c-2.4,3.9-5.5,6.7-9.2,8.2c-3.8,1.5-7.9,2.3-12.5,2.3h-9.4v33.7H534z M554.8,82.6h3.7
			c6.6,0,9.9-3.7,9.9-11.1c0-4-0.9-6.8-2.6-8.3c-1.7-1.5-4.3-2.3-7.6-2.3h-3.4V82.6z"/>
		<path class="st1" d="M597.6,67.8c0-4.7,1-8.9,3-12.5c2-3.7,5.1-6.5,9.4-8.6c4.2-2.1,9.5-3.2,15.8-3.2s11.5,1.1,15.7,3.2
			c4.2,2.1,7.3,5,9.3,8.7c2,3.7,3,7.9,3,12.5v38.8c0,8.8-2.3,15.5-6.9,20.2c-4.6,4.6-11.6,6.9-21.2,6.9c-18.7,0-28.1-9-28.1-27.1
			V67.8z M625.7,59.3c-2,0-3.7,0.6-5.1,1.9c-1.4,1.2-2.1,3-2.1,5.4v43.8c0,2.4,0.7,4.3,2.2,5.7c1.4,1.4,3.1,2,5.1,2
			c1.9,0,3.6-0.7,5-2.1s2.2-3.3,2.2-5.6V66.5c0-2.3-0.7-4.1-2.2-5.4S627.6,59.3,625.7,59.3z"/>
		<path class="st1" d="M716.3,45.4v8.3h6.1c5.4,0,10.2,1.2,14.3,3.6c4.1,2.4,7.3,6.2,9.6,11.3c2.3,5.1,3.5,11.6,3.5,19.5
			c0,8-1.2,14.5-3.5,19.7c-2.3,5.1-5.5,8.9-9.6,11.2c-4.1,2.4-8.9,3.5-14.3,3.5h-6.1v9.3h-20.2v-9.3h-6.1c-5.4,0-10.2-1.2-14.3-3.6
			c-4.1-2.4-7.4-6.1-9.7-11.3c-2.3-5.2-3.5-11.7-3.5-19.6c0-7.8,1.2-14.3,3.5-19.4c2.3-5.2,5.5-8.9,9.7-11.4
			c4.1-2.4,8.9-3.6,14.3-3.6h6.1v-8.3H716.3z M696.1,107.1V69.3h-4.4c-3.6,0-6.2,1.6-7.8,4.7s-2.4,7.9-2.4,14.2
			c0,6.4,0.8,11.1,2.5,14.2c1.6,3.1,4.3,4.7,7.9,4.7H696.1z M716.3,107.1h4.2c3.6,0,6.2-1.5,7.8-4.6s2.4-7.8,2.4-14.3
			c0-6.4-0.8-11.1-2.3-14.3c-1.6-3.1-4.1-4.7-7.7-4.7h-4.4V107.1z"/>
		<path class="st1" d="M793.7,131.9v-20.1c0-3.5,0.6-9.5,1.8-18.1c1.2-8.5,1.9-13.4,2-14.5h-0.1l-17.9,52.7h-20.2V45.4h19.9v21.4
			c0,2.7-0.1,5.4-0.4,8.2c-0.3,2.8-0.8,6.9-1.5,12.3c-0.7,5.5-1.1,9.6-1.3,12.4h0.1l17.6-54.3h19.9v86.5H793.7z"/>
	</g>
	<g>
		<path class="st1" d="M108.2,197.5c8.6-0.7,16.8-2.6,24.5-5.5v-82.6h-24.5V197.5z"/>
		<path class="st1" d="M101.3,22.5c-48.4,0-87.7,39.3-87.7,87.7c0,27.8,13,52.6,33.2,68.7V55.2h108.9l-23.1,19.3H70V192
			c4.9,1.9,9.9,3.3,15.1,4.3V90.1h70.7v88.7C176,162.8,189,138,189,110.1C189,61.7,149.7,22.5,101.3,22.5z"/>
	</g>
</g>
</svg>
